<svg xmlns="http://www.w3.org/2000/svg" width="24" height="24" viewBox="0 0 24 24" fill="none" stroke="currentColor" stroke-width="2" stroke-linecap="round" stroke-linejoin="round"><path d="M18 12.5V10a2 2 0 0 0-2-2 2 2 0 0 0-2 2"/><path d="M14 11V9a2 2 0 0 0-2-2 2 2 0 0 0-2 2v2"/><path d="M10 11V7a2 2 0 0 0-2-2 2 2 0 0 0-2 2v8"/><path d="M6 15a6 6 0 0 0 6 6h1a7 7 0 0 0 7-7v-4a2 2 0 0 0-4 0"/><path d="M4.2 2.3 4.8 4l1.7.6L4.8 5.2 4.2 6.9 3.6 5.2 1.9 4.6 3.6 4z" fill="currentColor" stroke="none"/></svg>
